STARTFONT 2.1
FONT -B&H-Lucida Sans Typewriter-Medium-R-Normal-Sans-20-200-72-72-M-120-ISO8859-1
SIZE 20 72 72
FONTBOUNDINGBOX 12 24 0 -5

STARTPROPERTIES 22
FONTNAME_REGISTRY "-"
FOUNDRY "B&H"
FAMILY_NAME "Lucida Sans Typewriter"
WEIGHT_NAME "Medium"
SLANT "R"
SETWIDTH_NAME "Normal"
ADD_STYLE_NAME "Sans"
SPACING "M"
CHARSET_REGISTRY "ISO8859"
CHARSET_ENCODING "1"
PIXEL_SIZE 20
POINT_SIZE 200
RESOLUTION_X 72
RESOLUTION_Y 72
AVERAGE_WIDTH 120
FULL_NAME "LucidaSans-Typewriter"
WEIGHT 10
X_HEIGHT 11
QUAD_WIDTH 12
DEFAULT_CHAR 32
FONT_DESCENT 5
FONT_ASCENT 19
ENDPROPERTIES

CHARS 190

STARTCHAR space
ENCODING 32
SWIDTH 602 0
DWIDTH 12 0
BBX 12 24 0 -5
ATTRIBUTES   E4
BITMAP
0000
0000
0000
0000
0000
0000
0000
0000
0000
0000
0000
0000
0000
0000
0000
0000
0000
0000
0000
0000
0000
0000
0000
0000
ENDCHAR

STARTCHAR exclam
ENCODING 33
SWIDTH 602 0
DWIDTH 12 0
BBX 12 24 0 -5
ATTRIBUTES   E4
BITMAP
0000
0000
0000
0000
0000
0600
0600
0600
0600
0600
0400
0400
0400
0400
0400
0000
0000
0600
0600
0000
0000
0000
0000
0000
ENDCHAR

STARTCHAR quotedbl
ENCODING 34
SWIDTH 602 0
DWIDTH 12 0
BBX 12 24 0 -5
ATTRIBUTES   E4
BITMAP
0000
0000
0000
0000
18C0
18C0
18C0
1080
1080
0000
0000
0000
0000
0000
0000
0000
0000
0000
0000
0000
0000
0000
0000
0000
ENDCHAR

STARTCHAR numbersign
ENCODING 35
SWIDTH 602 0
DWIDTH 12 0
BBX 12 24 0 -5
ATTRIBUTES   E4
BITMAP
0000
0000
0000
0000
0000
0220
0440
0440
3FF0
0880
0880
0880
0880
7FE0
1100
1100
1100
1300
3200
0000
0000
0000
0000
0000
ENDCHAR

STARTCHAR dollar
ENCODING 36
SWIDTH 602 0
DWIDTH 12 0
BBX 12 24 0 -5
ATTRIBUTES   E4
BITMAP
0000
0000
0000
0000
0200
0FE0
1A20
3200
3200
3A00
1E00
0E00
0380
02C0
0260
0260
0260
22C0
3F80
0200
0000
0000
0000
0000
ENDCHAR

STARTCHAR percent
ENCODING 37
SWIDTH 602 0
DWIDTH 12 0
BBX 12 24 0 -5
ATTRIBUTES   E4
BITMAP
0000
0000
0000
0000
3800
6C30
4420
4440
44C0
6C80
3900
0200
02E0
05B0
0910
1910
1110
21B0
60E0
0000
0000
0000
0000
0000
ENDCHAR

STARTCHAR ampersand
ENCODING 38
SWIDTH 602 0
DWIDTH 12 0
BBX 12 24 0 -5
ATTRIBUTES   E4
BITMAP
0000
0000
0000
0000
0000
0F00
1980
1980
1980
1B00
0E00
1C00
3630
6730
6330
61E0
61E0
31C0
1F70
0000
0000
0000
0000
0000
ENDCHAR

STARTCHAR quoteright
ENCODING 39
SWIDTH 602 0
DWIDTH 12 0
BBX 12 24 0 -5
ATTRIBUTES   E4
BITMAP
0000
0000
0000
0000
0700
0700
0300
0300
0600
0000
0000
0000
0000
0000
0000
0000
0000
0000
0000
0000
0000
0000
0000
0000
ENDCHAR

STARTCHAR parenleft
ENCODING 40
SWIDTH 602 0
DWIDTH 12 0
BBX 12 24 0 -5
ATTRIBUTES   E4
BITMAP
0000
0000
0000
0000
00C0
0380
0600
0600
0C00
0C00
1800
1800
1800
1800
1800
1800
0C00
0C00
0600
0700
0380
00C0
0000
0000
ENDCHAR

STARTCHAR parenright
ENCODING 41
SWIDTH 602 0
DWIDTH 12 0
BBX 12 24 0 -5
ATTRIBUTES   E4
BITMAP
0000
0000
0000
0000
3000
1C00
0E00
0600
0300
0300
0180
0180
0180
0180
0180
0180
0300
0300
0600
0600
1C00
3000
0000
0000
ENDCHAR

STARTCHAR asterisk
ENCODING 42
SWIDTH 602 0
DWIDTH 12 0
BBX 12 24 0 -5
ATTRIBUTES   E4
BITMAP
0000
0000
0000
0000
0000
0600
0200
3BE0
3CE0
0480
0D80
1980
08C0
0000
0000
0000
0000
0000
0000
0000
0000
0000
0000
0000
ENDCHAR

STARTCHAR plus
ENCODING 43
SWIDTH 602 0
DWIDTH 12 0
BBX 12 24 0 -5
ATTRIBUTES   E4
BITMAP
0000
0000
0000
0000
0000
0000
0000
0000
0200
0200
0200
0200
0200
0200
3FE0
0200
0200
0200
0200
0000
0000
0000
0000
0000
ENDCHAR

STARTCHAR comma
ENCODING 44
SWIDTH 602 0
DWIDTH 12 0
BBX 12 24 0 -5
ATTRIBUTES   E4
BITMAP
0000
0000
0000
0000
0000
0000
0000
0000
0000
0000
0000
0000
0000
0000
0000
0000
0700
0700
0700
0300
0300
0600
0000
0000
ENDCHAR

STARTCHAR minus
ENCODING 45
SWIDTH 602 0
DWIDTH 12 0
BBX 12 24 0 -5
ATTRIBUTES   E4
BITMAP
0000
0000
0000
0000
0000
0000
0000
0000
0000
0000
0000
0000
0000
0000
7FE0
0000
0000
0000
0000
0000
0000
0000
0000
0000
ENDCHAR

STARTCHAR period
ENCODING 46
SWIDTH 602 0
DWIDTH 12 0
BBX 12 24 0 -5
ATTRIBUTES   E4
BITMAP
0000
0000
0000
0000
0000
0000
0000
0000
0000
0000
0000
0000
0000
0000
0000
0000
0700
0700
0700
0000
0000
0000
0000
0000
ENDCHAR

STARTCHAR slash
ENCODING 47
SWIDTH 602 0
DWIDTH 12 0
BBX 12 24 0 -5
ATTRIBUTES   E4
BITMAP
0000
0000
0000
0000
0020
0060
0040
00C0
0080
0180
0100
0300
0200
0600
0400
0C00
0800
1800
1000
3000
2000
6000
0000
0000
ENDCHAR

STARTCHAR zero
ENCODING 48
SWIDTH 602 0
DWIDTH 12 0
BBX 12 24 0 -5
ATTRIBUTES   E4
BITMAP
0000
0000
0000
0000
0000
0F00
1980
30C0
2040
6060
6060
6060
6060
6060
6060
2040
30C0
1980
0F00
0000
0000
0000
0000
0000
ENDCHAR

STARTCHAR one
ENCODING 49
SWIDTH 602 0
DWIDTH 12 0
BBX 12 24 0 -5
ATTRIBUTES   E4
BITMAP
0000
0000
0000
0000
0000
0100
1F00
3300
0300
0300
0300
0300
0300
0300
0300
0300
0300
0300
3FF0
0000
0000
0000
0000
0000
ENDCHAR

STARTCHAR two
ENCODING 50
SWIDTH 602 0
DWIDTH 12 0
BBX 12 24 0 -5
ATTRIBUTES   E4
BITMAP
0000
0000
0000
0000
0000
3F00
2180
00C0
00C0
00C0
0180
0180
0200
0400
0800
1800
3000
3FC0
3FC0
0000
0000
0000
0000
0000
ENDCHAR

STARTCHAR three
ENCODING 51
SWIDTH 602 0
DWIDTH 12 0
BBX 12 24 0 -5
ATTRIBUTES   E4
BITMAP
0000
0000
0000
0000
0000
1F00
11C0
00C0
00C0
00C0
0180
0E00
0180
00C0
00C0
00C0
00C0
1180
1F00
0000
0000
0000
0000
0000
ENDCHAR

STARTCHAR four
ENCODING 52
SWIDTH 602 0
DWIDTH 12 0
BBX 12 24 0 -5
ATTRIBUTES   E4
BITMAP
0000
0000
0000
0000
0000
0180
0180
0380
0580
0D80
0980
1180
3180
6180
7FE0
0180
0180
0180
0180
0000
0000
0000
0000
0000
ENDCHAR

STARTCHAR five
ENCODING 53
SWIDTH 602 0
DWIDTH 12 0
BBX 12 24 0 -5
ATTRIBUTES   E4
BITMAP
0000
0000
0000
0000
0000
1FC0
1FC0
1800
1800
1800
1F00
0380
00C0
00C0
00C0
00C0
00C0
1180
1F00
0000
0000
0000
0000
0000
ENDCHAR

STARTCHAR six
ENCODING 54
SWIDTH 602 0
DWIDTH 12 0
BBX 12 24 0 -5
ATTRIBUTES   E4
BITMAP
0000
0000
0000
0000
0000
07C0
0C40
1800
1800
3000
3780
38C0
3060
3060
3060
3060
1060
18C0
0780
0000
0000
0000
0000
0000
ENDCHAR

STARTCHAR seven
ENCODING 55
SWIDTH 602 0
DWIDTH 12 0
BBX 12 24 0 -5
ATTRIBUTES   E4
BITMAP
0000
0000
0000
0000
0000
3FE0
3FE0
0040
00C0
0180
0100
0300
0200
0600
0C00
0C00
1800
1800
1800
0000
0000
0000
0000
0000
ENDCHAR

STARTCHAR eight
ENCODING 56
SWIDTH 602 0
DWIDTH 12 0
BBX 12 24 0 -5
ATTRIBUTES   E4
BITMAP
0000
0000
0000
0000
0000
07C0
0CE0
1860
1860
1840
0C80
0700
0F80
19C0
30E0
3060
3060
18C0
0F80
0000
0000
0000
0000
0000
ENDCHAR

STARTCHAR nine
ENCODING 57
SWIDTH 602 0
DWIDTH 12 0
BBX 12 24 0 -5
ATTRIBUTES   E4
BITMAP
0000
0000
0000
0000
0000
0F00
18C0
3040
3060
3060
3060
18E0
0F60
0060
0060
00C0
00C0
1180
1F00
0000
0000
0000
0000
0000
ENDCHAR

STARTCHAR colon
ENCODING 58
SWIDTH 602 0
DWIDTH 12 0
BBX 12 24 0 -5
ATTRIBUTES   E4
BITMAP
0000
0000
0000
0000
0000
0000
0000
0000
0700
0700
0700
0000
0000
0000
0000
0000
0700
0700
0700
0000
0000
0000
0000
0000
ENDCHAR

STARTCHAR semicolon
ENCODING 59
SWIDTH 602 0
DWIDTH 12 0
BBX 12 24 0 -5
ATTRIBUTES   E4
BITMAP
0000
0000
0000
0000
0000
0000
0000
0000
0700
0700
0700
0000
0000
0000
0000
0000
0700
0700
0700
0300
0300
0600
0000
0000
ENDCHAR

STARTCHAR less
ENCODING 60
SWIDTH 602 0
DWIDTH 12 0
BBX 12 24 0 -5
ATTRIBUTES   E4
BITMAP
0000
0000
0000
0000
0000
0000
0000
0000
0020
0060
0180
0600
1800
2000
1800
0600
0180
0060
0020
0000
0000
0000
0000
0000
ENDCHAR

STARTCHAR equal
ENCODING 61
SWIDTH 602 0
DWIDTH 12 0
BBX 12 24 0 -5
ATTRIBUTES   E4
BITMAP
0000
0000
0000
0000
0000
0000
0000
0000
0000
0000
0000
7FE0
0000
0000
0000
7FE0
0000
0000
0000
0000
0000
0000
0000
0000
ENDCHAR

STARTCHAR greater
ENCODING 62
SWIDTH 602 0
DWIDTH 12 0
BBX 12 24 0 -5
ATTRIBUTES   E4
BITMAP
0000
0000
0000
0000
0000
0000
0000
0000
4000
6000
1800
0600
0180
00C0
0180
0600
1800
6000
4000
0000
0000
0000
0000
0000
ENDCHAR

STARTCHAR question
ENCODING 63
SWIDTH 602 0
DWIDTH 12 0
BBX 12 24 0 -5
ATTRIBUTES   E4
BITMAP
0000
0000
0000
0000
0000
3F80
20E0
2060
0060
00C0
0180
0300
0400
0C00
0C00
0000
0000
0C00
0C00
0000
0000
0000
0000
0000
ENDCHAR

STARTCHAR at
ENCODING 64
SWIDTH 602 0
DWIDTH 12 0
BBX 12 24 0 -5
ATTRIBUTES   E4
BITMAP
0000
0000
0000
0000
0000
0780
1840
3020
21E0
6220
4420
4420
4460
4460
44A0
23B0
2000
1840
0F80
0000
0000
0000
0000
0000
ENDCHAR

STARTCHAR A
ENCODING 65
SWIDTH 602 0
DWIDTH 12 0
BBX 12 24 0 -5
ATTRIBUTES   E4
BITMAP
0000
0000
0000
0000
0000
0600
0600
0F00
0B00
1B80
1980
1180
31C0
30C0
3FC0
60E0
6060
4060
C030
0000
0000
0000
0000
0000
ENDCHAR

STARTCHAR B
ENCODING 66
SWIDTH 602 0
DWIDTH 12 0
BBX 12 24 0 -5
ATTRIBUTES   E4
BITMAP
0000
0000
0000
0000
0000
3F80
31C0
30C0
30C0
30C0
3180
3E00
3180
30C0
3060
3060
3060
30C0
3F80
0000
0000
0000
0000
0000
ENDCHAR

STARTCHAR C
ENCODING 67
SWIDTH 602 0
DWIDTH 12 0
BBX 12 24 0 -5
ATTRIBUTES   E4
BITMAP
0000
0000
0000
0000
0000
07E0
1820
3000
3000
6000
6000
6000
6000
6000
7000
3000
3C20
1FE0
07C0
0000
0000
0000
0000
0000
ENDCHAR

STARTCHAR D
ENCODING 68
SWIDTH 602 0
DWIDTH 12 0
BBX 12 24 0 -5
ATTRIBUTES   E4
BITMAP
0000
0000
0000
0000
0000
7F00
6180
60C0
60E0
6060
6060
6060
6060
6060
6060
60C0
60C0
6180
7E00
0000
0000
0000
0000
0000
ENDCHAR

STARTCHAR E
ENCODING 69
SWIDTH 602 0
DWIDTH 12 0
BBX 12 24 0 -5
ATTRIBUTES   E4
BITMAP
0000
0000
0000
0000
0000
3FE0
3000
3000
3000
3000
3000
3FC0
3000
3000
3000
3000
3000
3000
3FE0
0000
0000
0000
0000
0000
ENDCHAR

STARTCHAR F
ENCODING 70
SWIDTH 602 0
DWIDTH 12 0
BBX 12 24 0 -5
ATTRIBUTES   E4
BITMAP
0000
0000
0000
0000
0000
3FE0
3000
3000
3000
3000
3000
3FC0
3000
3000
3000
3000
3000
3000
3000
0000
0000
0000
0000
0000
ENDCHAR

STARTCHAR G
ENCODING 71
SWIDTH 602 0
DWIDTH 12 0
BBX 12 24 0 -5
ATTRIBUTES   E4
BITMAP
0000
0000
0000
0000
0000
07E0
1820
3000
3000
6000
6000
6000
6060
6060
7060
3060
3C60
1FE0
07C0
0000
0000
0000
0000
0000
ENDCHAR

STARTCHAR H
ENCODING 72
SWIDTH 602 0
DWIDTH 12 0
BBX 12 24 0 -5
ATTRIBUTES   E4
BITMAP
0000
0000
0000
0000
0000
3060
3060
3060
3060
3060
3060
3FE0
3060
3060
3060
3060
3060
3060
3060
0000
0000
0000
0000
0000
ENDCHAR

STARTCHAR I
ENCODING 73
SWIDTH 602 0
DWIDTH 12 0
BBX 12 24 0 -5
ATTRIBUTES   E4
BITMAP
0000
0000
0000
0000
0000
3FC0
0600
0600
0600
0600
0600
0600
0600
0600
0600
0600
0600
0600
3FC0
0000
0000
0000
0000
0000
ENDCHAR

STARTCHAR J
ENCODING 74
SWIDTH 602 0
DWIDTH 12 0
BBX 12 24 0 -5
ATTRIBUTES   E4
BITMAP
0000
0000
0000
0000
0000
1F80
0180
0180
0180
0180
0180
0180
0180
0180
0180
0180
0180
2300
3E00
0000
0000
0000
0000
0000
ENDCHAR

STARTCHAR K
ENCODING 75
SWIDTH 602 0
DWIDTH 12 0
BBX 12 24 0 -5
ATTRIBUTES   E4
BITMAP
0000
0000
0000
0000
0000
3060
30C0
3180
3100
3300
3600
3C00
3E00
3700
3300
3180
30C0
30E0
3070
0000
0000
0000
0000
0000
ENDCHAR

STARTCHAR L
ENCODING 76
SWIDTH 602 0
DWIDTH 12 0
BBX 12 24 0 -5
ATTRIBUTES   E4
BITMAP
0000
0000
0000
0000
0000
3000
3000
3000
3000
3000
3000
3000
3000
3000
3000
3000
3000
3000
3FE0
0000
0000
0000
0000
0000
ENDCHAR

STARTCHAR M
ENCODING 77
SWIDTH 602 0
DWIDTH 12 0
BBX 12 24 0 -5
ATTRIBUTES   E4
BITMAP
0000
0000
0000
0000
0000
7070
7070
7070
7870
68B0
68B0
68B0
6CB0
6530
6530
6530
6730
6230
6030
0000
0000
0000
0000
0000
ENDCHAR

STARTCHAR N
ENCODING 78
SWIDTH 602 0
DWIDTH 12 0
BBX 12 24 0 -5
ATTRIBUTES   E4
BITMAP
0000
0000
0000
0000
0000
3060
3860
3860
3C60
3C60
3660
3660
3360
3360
31E0
31E0
30E0
30E0
3060
0000
0000
0000
0000
0000
ENDCHAR

STARTCHAR O
ENCODING 79
SWIDTH 602 0
DWIDTH 12 0
BBX 12 24 0 -5
ATTRIBUTES   E4
BITMAP
0000
0000
0000
0000
0000
0F80
18C0
3060
2020
6030
6030
6030
6030
6030
6030
2020
3060
18C0
0F80
0000
0000
0000
0000
0000
ENDCHAR

STARTCHAR P
ENCODING 80
SWIDTH 602 0
DWIDTH 12 0
BBX 12 24 0 -5
ATTRIBUTES   E4
BITMAP
0000
0000
0000
0000
0000
3F80
30C0
3060
3060
3060
3060
30C0
3F00
3000
3000
3000
3000
3000
3000
0000
0000
0000
0000
0000
ENDCHAR

STARTCHAR Q
ENCODING 81
SWIDTH 602 0
DWIDTH 12 0
BBX 12 24 0 -5
ATTRIBUTES   E4
BITMAP
0000
0000
0000
0000
0000
1F00
3180
60C0
4040
C060
C060
C060
C060
C060
C060
4060
60C0
31C0
1F80
0180
00F0
0020
0000
0000
ENDCHAR

STARTCHAR R
ENCODING 82
SWIDTH 602 0
DWIDTH 12 0
BBX 12 24 0 -5
ATTRIBUTES   E4
BITMAP
0000
0000
0000
0000
0000
3F00
31C0
30C0
30C0
30C0
3180
3F80
3200
3300
3180
31C0
30C0
30E0
3070
0000
0000
0000
0000
0000
ENDCHAR

STARTCHAR S
ENCODING 83
SWIDTH 602 0
DWIDTH 12 0
BBX 12 24 0 -5
ATTRIBUTES   E4
BITMAP
0000
0000
0000
0000
0000
0FC0
1840
3000
3000
3800
1C00
0F00
03C0
00E0
0060
0060
0060
30C0
3F80
0000
0000
0000
0000
0000
ENDCHAR

STARTCHAR T
ENCODING 84
SWIDTH 602 0
DWIDTH 12 0
BBX 12 24 0 -5
ATTRIBUTES   E4
BITMAP
0000
0000
0000
0000
0000
FFF0
0600
0600
0600
0600
0600
0600
0600
0600
0600
0600
0600
0600
0600
0000
0000
0000
0000
0000
ENDCHAR

STARTCHAR U
ENCODING 85
SWIDTH 602 0
DWIDTH 12 0
BBX 12 24 0 -5
ATTRIBUTES   E4
BITMAP
0000
0000
0000
0000
0000
3060
3060
3060
3060
3060
3060
3060
3060
3060
3060
3060
3060
18C0
0F80
0000
0000
0000
0000
0000
ENDCHAR

STARTCHAR V
ENCODING 86
SWIDTH 602 0
DWIDTH 12 0
BBX 12 24 0 -5
ATTRIBUTES   E4
BITMAP
0000
0000
0000
0000
0000
C030
6020
6060
6040
3040
30C0
3080
1980
1980
1900
0F00
0F00
0E00
0600
0000
0000
0000
0000
0000
ENDCHAR

STARTCHAR W
ENCODING 87
SWIDTH 602 0
DWIDTH 12 0
BBX 12 24 0 -5
ATTRIBUTES   E4
BITMAP
0000
0000
0000
0000
0000
C030
C630
C620
C620
4E20
4B20
4B60
6B60
6B40
7940
7940
71C0
31C0
31C0
0000
0000
0000
0000
0000
ENDCHAR

STARTCHAR X
ENCODING 88
SWIDTH 602 0
DWIDTH 12 0
BBX 12 24 0 -5
ATTRIBUTES   E4
BITMAP
0000
0000
0000
0000
0000
E060
7040
30C0
1980
1D00
0F00
0600
0F00
0F00
1980
31C0
30C0
60E0
C070
0000
0000
0000
0000
0000
ENDCHAR

STARTCHAR Y
ENCODING 89
SWIDTH 602 0
DWIDTH 12 0
BBX 12 24 0 -5
ATTRIBUTES   E4
BITMAP
0000
0000
0000
0000
0000
E030
6060
7040
30C0
1880
1980
0F00
0E00
0600
0600
0600
0600
0600
0600
0000
0000
0000
0000
0000
ENDCHAR

STARTCHAR Z
ENCODING 90
SWIDTH 602 0
DWIDTH 12 0
BBX 12 24 0 -5
ATTRIBUTES   E4
BITMAP
0000
0000
0000
0000
0000
7FE0
0060
00C0
01C0
0180
0300
0700
0600
0C00
1C00
3800
3000
6000
7FE0
0000
0000
0000
0000
0000
ENDCHAR

STARTCHAR bracketleft
ENCODING 91
SWIDTH 602 0
DWIDTH 12 0
BBX 12 24 0 -5
ATTRIBUTES   E4
BITMAP
0000
0000
0000
0000
0FC0
0C00
0C00
0C00
0C00
0C00
0C00
0C00
0C00
0C00
0C00
0C00
0C00
0C00
0C00
0C00
0C00
0FC0
0000
0000
ENDCHAR

STARTCHAR backslash
ENCODING 92
SWIDTH 602 0
DWIDTH 12 0
BBX 12 24 0 -5
ATTRIBUTES   E4
BITMAP
0000
0000
0000
0000
6000
2000
3000
1000
1800
0800
0C00
0400
0600
0200
0300
0100
0180
0080
00C0
0040
0060
0020
0000
0000
ENDCHAR

STARTCHAR bracketright
ENCODING 93
SWIDTH 602 0
DWIDTH 12 0
BBX 12 24 0 -5
ATTRIBUTES   E4
BITMAP
0000
0000
0000
0000
3F00
0300
0300
0300
0300
0300
0300
0300
0300
0300
0300
0300
0300
0300
0300
0300
0300
3F00
0000
0000
ENDCHAR

STARTCHAR asciicircum
ENCODING 94
SWIDTH 602 0
DWIDTH 12 0
BBX 12 24 0 -5
ATTRIBUTES   E4
BITMAP
0000
0000
0000
0000
0000
0200
0200
0600
0600
0F00
0900
1980
1080
30C0
2040
6060
0000
0000
0000
0000
0000
0000
0000
0000
ENDCHAR

STARTCHAR underscore
ENCODING 95
SWIDTH 602 0
DWIDTH 12 0
BBX 12 24 0 -5
ATTRIBUTES   E4
BITMAP
0000
0000
0000
0000
0000
0000
0000
0000
0000
0000
0000
0000
0000
0000
0000
0000
0000
0000
0000
FFF0
0000
0000
0000
0000
ENDCHAR

STARTCHAR quoteleft
ENCODING 96
SWIDTH 602 0
DWIDTH 12 0
BBX 12 24 0 -5
ATTRIBUTES   E4
BITMAP
0000
0000
0000
0000
0300
0600
0600
0700
0700
0700
0000
0000
0000
0000
0000
0000
0000
0000
0000
0000
0000
0000
0000
0000
ENDCHAR

STARTCHAR a
ENCODING 97
SWIDTH 602 0
DWIDTH 12 0
BBX 12 24 0 -5
ATTRIBUTES   E4
BITMAP
0000
0000
0000
0000
0000
0000
0000
0000
3F00
2380
0180
0180
0180
1F80
3180
6180
6180
6380
3EE0
0000
0000
0000
0000
0000
ENDCHAR

STARTCHAR b
ENCODING 98
SWIDTH 602 0
DWIDTH 12 0
BBX 12 24 0 -5
ATTRIBUTES   E4
BITMAP
0000
0000
0000
0000
3000
3000
3000
3000
3380
3FC0
38E0
3060
3060
3060
3060
3060
3040
38C0
3780
0000
0000
0000
0000
0000
ENDCHAR

STARTCHAR c
ENCODING 99
SWIDTH 602 0
DWIDTH 12 0
BBX 12 24 0 -5
ATTRIBUTES   E4
BITMAP
0000
0000
0000
0000
0000
0000
0000
0000
07E0
1C20
1800
3000
3000
3000
3000
3000
1800
1C20
07E0
0000
0000
0000
0000
0000
ENDCHAR

STARTCHAR d
ENCODING 100
SWIDTH 602 0
DWIDTH 12 0
BBX 12 24 0 -5
ATTRIBUTES   E4
BITMAP
0000
0000
0000
0000
00C0
00C0
00C0
00C0
1EC0
31C0
20C0
60C0
60C0
60C0
60C0
60C0
71C0
3FC0
1CC0
0000
0000
0000
0000
0000
ENDCHAR

STARTCHAR e
ENCODING 101
SWIDTH 602 0
DWIDTH 12 0
BBX 12 24 0 -5
ATTRIBUTES   E4
BITMAP
0000
0000
0000
0000
0000
0000
0000
0000
0780
18C0
1060
3060
3060
3FE0
3000
3000
1800
1C20
07E0
0000
0000
0000
0000
0000
ENDCHAR

STARTCHAR f
ENCODING 102
SWIDTH 602 0
DWIDTH 12 0
BBX 12 24 0 -5
ATTRIBUTES   E4
BITMAP
0000
0000
0000
0000
03F0
0600
0600
0600
3FF0
0600
0600
0600
0600
0600
0600
0600
0600
0600
0600
0000
0000
0000
0000
0000
ENDCHAR

STARTCHAR g
ENCODING 103
SWIDTH 602 0
DWIDTH 12 0
BBX 12 24 0 -5
ATTRIBUTES   E4
BITMAP
0000
0000
0000
0000
0000
0000
0000
0000
1EC0
31C0
20C0
60C0
60C0
60C0
60C0
60C0
71C0
3FC0
1CC0
00C0
0080
2180
3F00
0000
ENDCHAR

STARTCHAR h
ENCODING 104
SWIDTH 602 0
DWIDTH 12 0
BBX 12 24 0 -5
ATTRIBUTES   E4
BITMAP
0000
0000
0000
0000
3000
3000
3000
3000
33C0
37E0
3C60
3060
3060
3060
3060
3060
3060
3060
3060
0000
0000
0000
0000
0000
ENDCHAR

STARTCHAR i
ENCODING 105
SWIDTH 602 0
DWIDTH 12 0
BBX 12 24 0 -5
ATTRIBUTES   E4
BITMAP
0000
0000
0000
0000
0300
0300
0000
0000
3F00
0300
0300
0300
0300
0300
0300
0300
0300
0300
0300
0000
0000
0000
0000
0000
ENDCHAR

STARTCHAR j
ENCODING 106
SWIDTH 602 0
DWIDTH 12 0
BBX 12 24 0 -5
ATTRIBUTES   E4
BITMAP
0000
0000
0000
0000
0180
0180
0000
0000
1F80
0180
0180
0180
0180
0180
0180
0180
0180
0180
0180
0180
0180
2300
3E00
0000
ENDCHAR

STARTCHAR k
ENCODING 107
SWIDTH 602 0
DWIDTH 12 0
BBX 12 24 0 -5
ATTRIBUTES   E4
BITMAP
0000
0000
0000
0000
3000
3000
3000
3000
30E0
31C0
3380
3700
3E00
3E00
3700
3380
31C0
30E0
3070
0000
0000
0000
0000
0000
ENDCHAR

STARTCHAR l
ENCODING 108
SWIDTH 602 0
DWIDTH 12 0
BBX 12 24 0 -5
ATTRIBUTES   E4
BITMAP
0000
0000
0000
0000
3F00
0300
0300
0300
0300
0300
0300
0300
0300
0300
0300
0300
0300
0300
0300
0000
0000
0000
0000
0000
ENDCHAR

STARTCHAR m
ENCODING 109
SWIDTH 602 0
DWIDTH 12 0
BBX 12 24 0 -5
ATTRIBUTES   E4
BITMAP
0000
0000
0000
0000
0000
0000
0000
0000
6CC0
5FE0
7760
6660
6660
6660
6660
6660
6660
6660
6660
0000
0000
0000
0000
0000
ENDCHAR

STARTCHAR n
ENCODING 110
SWIDTH 602 0
DWIDTH 12 0
BBX 12 24 0 -5
ATTRIBUTES   E4
BITMAP
0000
0000
0000
0000
0000
0000
0000
0000
33C0
37E0
3C60
3060
3060
3060
3060
3060
3060
3060
3060
0000
0000
0000
0000
0000
ENDCHAR

STARTCHAR o
ENCODING 111
SWIDTH 602 0
DWIDTH 12 0
BBX 12 24 0 -5
ATTRIBUTES   E4
BITMAP
0000
0000
0000
0000
0000
0000
0000
0000
0F00
30C0
30C0
6060
6060
6060
6060
6060
30C0
30C0
0F00
0000
0000
0000
0000
0000
ENDCHAR

STARTCHAR p
ENCODING 112
SWIDTH 602 0
DWIDTH 12 0
BBX 12 24 0 -5
ATTRIBUTES   E4
BITMAP
0000
0000
0000
0000
0000
0000
0000
0000
3380
3FC0
38E0
3060
3060
3060
3060
3060
3040
38C0
3780
3000
3000
3000
3000
0000
ENDCHAR

STARTCHAR q
ENCODING 113
SWIDTH 602 0
DWIDTH 12 0
BBX 12 24 0 -5
ATTRIBUTES   E4
BITMAP
0000
0000
0000
0000
0000
0000
0000
0000
1EC0
31C0
20C0
60C0
60C0
60C0
60C0
60C0
71C0
3FC0
1CC0
00C0
00C0
00C0
00C0
0000
ENDCHAR

STARTCHAR r
ENCODING 114
SWIDTH 602 0
DWIDTH 12 0
BBX 12 24 0 -5
ATTRIBUTES   E4
BITMAP
0000
0000
0000
0000
0000
0000
0000
0000
19E0
1BE0
1E20
1C20
1800
1800
1800
1800
1800
1800
1800
0000
0000
0000
0000
0000
ENDCHAR

STARTCHAR s
ENCODING 115
SWIDTH 602 0
DWIDTH 12 0
BBX 12 24 0 -5
ATTRIBUTES   E4
BITMAP
0000
0000
0000
0000
0000
0000
0000
0000
0FC0
3040
3000
3800
3E00
0FC0
01E0
0060
0060
20C0
3F80
0000
0000
0000
0000
0000
ENDCHAR

STARTCHAR t
ENCODING 116
SWIDTH 602 0
DWIDTH 12 0
BBX 12 24 0 -5
ATTRIBUTES   E4
BITMAP
0000
0000
0000
0000
0000
0000
0C00
0C00
7FE0
0C00
0C00
0C00
0C00
0C00
0C00
0C00
0C00
0E00
07E0
0000
0000
0000
0000
0000
ENDCHAR

STARTCHAR u
ENCODING 117
SWIDTH 602 0
DWIDTH 12 0
BBX 12 24 0 -5
ATTRIBUTES   E4
BITMAP
0000
0000
0000
0000
0000
0000
0000
0000
60C0
60C0
60C0
60C0
60C0
60C0
60C0
60C0
63C0
7EC0
3CC0
0000
0000
0000
0000
0000
ENDCHAR

STARTCHAR v
ENCODING 118
SWIDTH 602 0
DWIDTH 12 0
BBX 12 24 0 -5
ATTRIBUTES   E4
BITMAP
0000
0000
0000
0000
0000
0000
0000
0000
6030
7020
3060
3040
18C0
18C0
1C80
0D80
0D00
0700
0700
0000
0000
0000
0000
0000
ENDCHAR

STARTCHAR w
ENCODING 119
SWIDTH 602 0
DWIDTH 12 0
BBX 12 24 0 -5
ATTRIBUTES   E4
BITMAP
0000
0000
0000
0000
0000
0000
0000
0000
C030
C630
C620
4620
4B20
6960
6960
6940
71C0
31C0
30C0
0000
0000
0000
0000
0000
ENDCHAR

STARTCHAR x
ENCODING 120
SWIDTH 602 0
DWIDTH 12 0
BBX 12 24 0 -5
ATTRIBUTES   E4
BITMAP
0000
0000
0000
0000
0000
0000
0000
0000
7060
38C0
1980
0D80
0F00
0600
0F00
0B80
19C0
30C0
6060
0000
0000
0000
0000
0000
ENDCHAR

STARTCHAR y
ENCODING 121
SWIDTH 602 0
DWIDTH 12 0
BBX 12 24 0 -5
ATTRIBUTES   E4
BITMAP
0000
0000
0000
0000
0000
0000
0000
0000
6030
7060
3060
3040
18C0
1880
0D80
0D00
0D00
0700
0600
0600
0400
0C00
3800
0000
ENDCHAR

STARTCHAR z
ENCODING 122
SWIDTH 602 0
DWIDTH 12 0
BBX 12 24 0 -5
ATTRIBUTES   E4
BITMAP
0000
0000
0000
0000
0000
0000
0000
0000
7FC0
00C0
0180
0380
0700
0E00
0C00
1800
3000
7000
7FC0
0000
0000
0000
0000
0000
ENDCHAR

STARTCHAR braceleft
ENCODING 123
SWIDTH 602 0
DWIDTH 12 0
BBX 12 24 0 -5
ATTRIBUTES   E4
BITMAP
0000
0000
0000
0000
03C0
0600
0600
0600
0700
0300
0300
0300
0600
3E00
0700
0300
0300
0300
0600
0600
0600
03C0
0000
0000
ENDCHAR

STARTCHAR bar
ENCODING 124
SWIDTH 602 0
DWIDTH 12 0
BBX 12 24 0 -5
ATTRIBUTES   E4
BITMAP
0000
0000
0000
0000
0200
0200
0200
0200
0200
0200
0200
0200
0200
0200
0200
0200
0200
0200
0200
0200
0200
0200
0000
0000
ENDCHAR

STARTCHAR braceright
ENCODING 125
SWIDTH 602 0
DWIDTH 12 0
BBX 12 24 0 -5
ATTRIBUTES   E4
BITMAP
0000
0000
0000
0000
3C00
0600
0600
0600
0E00
0C00
0C00
0C00
0400
0780
0C00
0C00
0C00
0C00
0600
0600
0600
3C00
0000
0000
ENDCHAR

STARTCHAR asciitilde
ENCODING 126
SWIDTH 602 0
DWIDTH 12 0
BBX 12 24 0 -5
ATTRIBUTES   E4
BITMAP
0000
0000
0000
0000
0000
0000
0000
0000
0000
0000
0000
0000
0000
3C20
4620
41C0
0000
0000
0000
0000
0000
0000
0000
0000
ENDCHAR

STARTCHAR exclamdown
ENCODING 161
SWIDTH 602 0
DWIDTH 12 0
BBX 12 24 0 -5
ATTRIBUTES   E4
BITMAP
0000
0000
0000
0000
0000
0000
0000
0000
0600
0600
0000
0000
0400
0400
0400
0400
0400
0400
0600
0600
0600
0600
0600
0000
ENDCHAR

STARTCHAR cent
ENCODING 162
SWIDTH 602 0
DWIDTH 12 0
BBX 12 24 0 -5
ATTRIBUTES   E4
BITMAP
0000
0000
0000
0000
0000
0200
0200
0FC0
1A40
3A00
3200
3200
3200
3200
3200
1A00
0E40
03C0
0200
0000
0000
0000
0000
0000
ENDCHAR

STARTCHAR sterling
ENCODING 163
SWIDTH 602 0
DWIDTH 12 0
BBX 12 24 0 -5
ATTRIBUTES   E4
BITMAP
0000
0000
0000
0000
0000
03C0
0400
0C00
0C00
0C00
0C00
3F00
0C00
0C00
0C00
0800
1800
3FC0
3FC0
0000
0000
0000
0000
0000
ENDCHAR

STARTCHAR currency
ENCODING 164
SWIDTH 602 0
DWIDTH 12 0
BBX 12 24 0 -5
ATTRIBUTES   E4
BITMAP
0000
0000
0000
0000
0000
0000
0000
2020
1FC0
0880
1040
1040
1040
0880
1740
2020
0000
0000
0000
0000
0000
0000
0000
0000
ENDCHAR

STARTCHAR yen
ENCODING 165
SWIDTH 602 0
DWIDTH 12 0
BBX 12 24 0 -5
ATTRIBUTES   E4
BITMAP
0000
0000
0000
0000
0000
E030
7060
3040
1880
1D00
0F00
0600
3FC0
0600
0600
3FC0
0600
0600
0600
0000
0000
0000
0000
0000
ENDCHAR

STARTCHAR brokenbar
ENCODING 166
SWIDTH 602 0
DWIDTH 12 0
BBX 12 24 0 -5
ATTRIBUTES   E4
BITMAP
0000
0000
0000
0000
0200
0200
0200
0200
0200
0200
0200
0000
0000
0000
0000
0200
0200
0200
0200
0200
0200
0200
0000
0000
ENDCHAR

STARTCHAR section
ENCODING 167
SWIDTH 602 0
DWIDTH 12 0
BBX 12 24 0 -5
ATTRIBUTES   E4
BITMAP
0000
0000
0000
0000
0000
0FC0
1840
3000
3000
3C00
1F00
1380
31C0
30C0
38C0
1E80
0F80
03C0
00C0
00C0
2180
3F00
0000
0000
ENDCHAR

STARTCHAR dieresis
ENCODING 168
SWIDTH 602 0
DWIDTH 12 0
BBX 12 24 0 -5
ATTRIBUTES   E4
BITMAP
0000
0000
0000
0000
0000
1980
1980
0000
0000
0000
0000
0000
0000
0000
0000
0000
0000
0000
0000
0000
0000
0000
0000
0000
ENDCHAR

STARTCHAR copyright
ENCODING 169
SWIDTH 602 0
DWIDTH 12 0
BBX 12 24 0 -5
ATTRIBUTES   E4
BITMAP
0000
0000
0000
0000
0000
0F80
1040
2020
67B0
4890
5010
5010
5010
5010
4890
67B0
2020
1040
0F80
0000
0000
0000
0000
0000
ENDCHAR

STARTCHAR ordfeminine
ENCODING 170
SWIDTH 602 0
DWIDTH 12 0
BBX 12 24 0 -5
ATTRIBUTES   E4
BITMAP
0000
0000
0000
0000
0000
3F00
2180
0180
1F80
3180
3180
1FC0
0000
0000
0000
0000
0000
0000
0000
0000
0000
0000
0000
0000
ENDCHAR

STARTCHAR guillemotleft
ENCODING 171
SWIDTH 602 0
DWIDTH 12 0
BBX 12 24 0 -5
ATTRIBUTES   E4
BITMAP
0000
0000
0000
0000
0000
0000
0000
0000
0000
0440
0880
1100
3300
6600
3300
1100
0880
0440
0000
0000
0000
0000
0000
0000
ENDCHAR

STARTCHAR logicalnot
ENCODING 172
SWIDTH 602 0
DWIDTH 12 0
BBX 12 24 0 -5
ATTRIBUTES   E4
BITMAP
0000
0000
0000
0000
0000
0000
0000
0000
0000
0000
0000
0000
7FE0
0020
0020
0020
0000
0000
0000
0000
0000
0000
0000
0000
ENDCHAR

STARTCHAR hyphen
ENCODING 173
SWIDTH 602 0
DWIDTH 12 0
BBX 12 24 0 -5
ATTRIBUTES   E4
BITMAP
0000
0000
0000
0000
0000
0000
0000
0000
0000
0000
0000
0000
0000
3FC0
0000
0000
0000
0000
0000
0000
0000
0000
0000
0000
ENDCHAR

STARTCHAR registered
ENCODING 174
SWIDTH 602 0
DWIDTH 12 0
BBX 12 24 0 -5
ATTRIBUTES   E4
BITMAP
0000
0000
0000
0000
0000
0700
0880
1740
1540
1640
1640
1540
0880
0700
0000
0000
0000
0000
0000
0000
0000
0000
0000
0000
ENDCHAR

STARTCHAR macron
ENCODING 175
SWIDTH 602 0
DWIDTH 12 0
BBX 12 24 0 -5
ATTRIBUTES   E4
BITMAP
0000
0000
0000
0000
0000
0000
1F80
0000
0000
0000
0000
0000
0000
0000
0000
0000
0000
0000
0000
0000
0000
0000
0000
0000
ENDCHAR

STARTCHAR degree
ENCODING 176
SWIDTH 602 0
DWIDTH 12 0
BBX 12 24 0 -5
ATTRIBUTES   E4
BITMAP
0000
0000
0000
0000
0000
0700
0500
0700
0000
0000
0000
0000
0000
0000
0000
0000
0000
0000
0000
0000
0000
0000
0000
0000
ENDCHAR

STARTCHAR plusminus
ENCODING 177
SWIDTH 602 0
DWIDTH 12 0
BBX 12 24 0 -5
ATTRIBUTES   E4
BITMAP
0000
0000
0000
0000
0000
0000
0000
0000
0200
0200
0200
0200
3FE0
0200
0200
0200
0000
0000
3FE0
0000
0000
0000
0000
0000
ENDCHAR

STARTCHAR twosuperior
ENCODING 178
SWIDTH 602 0
DWIDTH 12 0
BBX 12 24 0 -5
ATTRIBUTES   E4
BITMAP
0000
0000
0000
0000
0000
0E00
0900
0100
0200
0400
0800
0F00
0000
0000
0000
0000
0000
0000
0000
0000
0000
0000
0000
0000
ENDCHAR

STARTCHAR threesuperior
ENCODING 179
SWIDTH 602 0
DWIDTH 12 0
BBX 12 24 0 -5
ATTRIBUTES   E4
BITMAP
0000
0000
0000
0000
0000
0F00
0100
0100
0600
0100
0100
0E00
0000
0000
0000
0000
0000
0000
0000
0000
0000
0000
0000
0000
ENDCHAR

STARTCHAR acute
ENCODING 180
SWIDTH 602 0
DWIDTH 12 0
BBX 12 24 0 -5
ATTRIBUTES   E4
BITMAP
0000
0000
0000
0000
0300
0600
0C00
0000
0000
0000
0000
0000
0000
0000
0000
0000
0000
0000
0000
0000
0000
0000
0000
0000
ENDCHAR

STARTCHAR mu
ENCODING 181
SWIDTH 602 0
DWIDTH 12 0
BBX 12 24 0 -5
ATTRIBUTES   E4
BITMAP
0000
0000
0000
0000
0000
0000
0000
0000
3060
3060
3060
3060
3060
3060
3060
30E0
31E0
3F60
3E60
3000
3000
3000
0000
0000
ENDCHAR

STARTCHAR paragraph
ENCODING 182
SWIDTH 602 0
DWIDTH 12 0
BBX 12 24 0 -5
ATTRIBUTES   E4
BITMAP
0000
0000
0000
0000
0000
1F80
3E80
3E80
3E80
3E80
1E80
0E80
0280
0280
0280
0280
0280
0280
0280
0280
0280
0280
0000
0000
ENDCHAR

STARTCHAR periodcentered
ENCODING 183
SWIDTH 602 0
DWIDTH 12 0
BBX 12 24 0 -5
ATTRIBUTES   E4
BITMAP
0000
0000
0000
0000
0000
0000
0000
0000
0000
0000
0000
0000
0000
0600
0600
0000
0000
0000
0000
0000
0000
0000
0000
0000
ENDCHAR

STARTCHAR cedilla
ENCODING 184
SWIDTH 602 0
DWIDTH 12 0
BBX 12 24 0 -5
ATTRIBUTES   E4
BITMAP
0000
0000
0000
0000
0000
0000
0000
0000
0000
0000
0000
0000
0000
0000
0000
0000
0000
0000
0000
0200
0600
0100
0700
0000
ENDCHAR

STARTCHAR onesuperior
ENCODING 185
SWIDTH 602 0
DWIDTH 12 0
BBX 12 24 0 -5
ATTRIBUTES   E4
BITMAP
0000
0000
0000
0000
0000
1C00
0400
0400
0400
0400
0400
1F00
0000
0000
0000
0000
0000
0000
0000
0000
0000
0000
0000
0000
ENDCHAR

STARTCHAR ordmasculine
ENCODING 186
SWIDTH 602 0
DWIDTH 12 0
BBX 12 24 0 -5
ATTRIBUTES   E4
BITMAP
0000
0000
0000
0000
0000
0F00
1980
30C0
30C0
30C0
1980
0F00
0000
0000
0000
0000
0000
0000
0000
0000
0000
0000
0000
0000
ENDCHAR

STARTCHAR guillemotright
ENCODING 187
SWIDTH 602 0
DWIDTH 12 0
BBX 12 24 0 -5
ATTRIBUTES   E4
BITMAP
0000
0000
0000
0000
0000
0000
0000
0000
0000
2200
1100
0880
0CC0
0660
0CC0
0880
1100
2200
0000
0000
0000
0000
0000
0000
ENDCHAR

STARTCHAR onequarter
ENCODING 188
SWIDTH 602 0
DWIDTH 12 0
BBX 12 24 0 -5
ATTRIBUTES   E4
BITMAP
0000
0000
0000
0000
0000
E030
2060
2040
2080
2180
2300
FA00
0460
0C60
08A0
11A0
21F0
6020
C020
0000
0000
0000
0000
0000
ENDCHAR

STARTCHAR onehalf
ENCODING 189
SWIDTH 602 0
DWIDTH 12 0
BBX 12 24 0 -5
ATTRIBUTES   E4
BITMAP
0000
0000
0000
0000
0000
E030
2060
2040
2080
2180
2300
FA00
04E0
0C90
0810
1020
2040
6080
C0F0
0000
0000
0000
0000
0000
ENDCHAR

STARTCHAR threequarters
ENCODING 190
SWIDTH 602 0
DWIDTH 12 0
BBX 12 24 0 -5
ATTRIBUTES   E4
BITMAP
0000
0000
0000
0000
0000
F030
1060
1040
6080
1180
1300
E200
0460
0C60
08A0
11A0
21F0
6020
C020
0000
0000
0000
0000
0000
ENDCHAR

STARTCHAR questiondown
ENCODING 191
SWIDTH 602 0
DWIDTH 12 0
BBX 12 24 0 -5
ATTRIBUTES   E4
BITMAP
0000
0000
0000
0000
0000
0000
0000
0000
0300
0300
0000
0000
0300
0300
0200
0400
0800
3000
6000
6000
6040
3040
1FC0
0000
ENDCHAR

STARTCHAR Agrave
ENCODING 192
SWIDTH 602 0
DWIDTH 12 0
BBX 12 24 0 -5
ATTRIBUTES   E4
BITMAP
0000
0C00
0600
0300
0000
0600
0600
0F00
0B00
1B80
1980
1180
31C0
30C0
3FC0
60E0
6060
4060
C030
0000
0000
0000
0000
0000
ENDCHAR

STARTCHAR Aacute
ENCODING 193
SWIDTH 602 0
DWIDTH 12 0
BBX 12 24 0 -5
ATTRIBUTES   E4
BITMAP
0000
0300
0600
0C00
0000
0600
0600
0F00
0B00
1B80
1980
1180
31C0
30C0
3FC0
60E0
6060
4060
C030
0000
0000
0000
0000
0000
ENDCHAR

STARTCHAR Acircumflex
ENCODING 194
SWIDTH 602 0
DWIDTH 12 0
BBX 12 24 0 -5
ATTRIBUTES   E4
BITMAP
0000
0E00
1B00
3180
0000
0600
0600
0F00
0B00
1B80
1980
1180
31C0
30C0
3FC0
60E0
6060
4060
C030
0000
0000
0000
0000
0000
ENDCHAR

STARTCHAR Atilde
ENCODING 195
SWIDTH 602 0
DWIDTH 12 0
BBX 12 24 0 -5
ATTRIBUTES   E4
BITMAP
0000
0000
1C80
1380
0000
0600
0600
0F00
0B00
1B80
1980
1180
31C0
30C0
3FC0
60E0
6060
4060
C030
0000
0000
0000
0000
0000
ENDCHAR

STARTCHAR Adieresis
ENCODING 196
SWIDTH 602 0
DWIDTH 12 0
BBX 12 24 0 -5
ATTRIBUTES   E4
BITMAP
0000
0000
1980
1980
0000
0600
0600
0F00
0B00
1B80
1980
1180
31C0
30C0
3FC0
60E0
6060
4060
C030
0000
0000
0000
0000
0000
ENDCHAR

STARTCHAR Aring
ENCODING 197
SWIDTH 602 0
DWIDTH 12 0
BBX 12 24 0 -5
ATTRIBUTES   E4
BITMAP
0000
0000
0E00
0E00
0000
0600
0600
0F00
0B00
1B80
1980
1180
31C0
30C0
3FC0
60E0
6060
4060
C030
0000
0000
0000
0000
0000
ENDCHAR

STARTCHAR AE
ENCODING 198
SWIDTH 602 0
DWIDTH 12 0
BBX 12 24 0 -5
ATTRIBUTES   E4
BITMAP
0000
0000
0000
0000
0000
03F0
0700
0700
0F00
0B00
1B00
1BE0
1300
3300
3F00
6300
6300
4300
C3F0
0000
0000
0000
0000
0000
ENDCHAR

STARTCHAR Ccedilla
ENCODING 199
SWIDTH 602 0
DWIDTH 12 0
BBX 12 24 0 -5
ATTRIBUTES   E4
BITMAP
0000
0000
0000
0000
0000
07E0
1820
3000
3000
6000
6000
6000
6000
6000
7000
3000
3C20
1FE0
07C0
0200
0600
0100
0700
0000
ENDCHAR

STARTCHAR Egrave
ENCODING 200
SWIDTH 602 0
DWIDTH 12 0
BBX 12 24 0 -5
ATTRIBUTES   E4
BITMAP
0000
0C00
0600
0300
0000
3FE0
3000
3000
3000
3000
3000
3FC0
3000
3000
3000
3000
3000
3000
3FE0
0000
0000
0000
0000
0000
ENDCHAR

STARTCHAR Eacute
ENCODING 201
SWIDTH 602 0
DWIDTH 12 0
BBX 12 24 0 -5
ATTRIBUTES   E4
BITMAP
0000
0300
0600
0C00
0000
3FE0
3000
3000
3000
3000
3000
3FC0
3000
3000
3000
3000
3000
3000
3FE0
0000
0000
0000
0000
0000
ENDCHAR

STARTCHAR Ecircumflex
ENCODING 202
SWIDTH 602 0
DWIDTH 12 0
BBX 12 24 0 -5
ATTRIBUTES   E4
BITMAP
0000
0E00
1B00
3180
0000
3FE0
3000
3000
3000
3000
3000
3FC0
3000
3000
3000
3000
3000
3000
3FE0
0000
0000
0000
0000
0000
ENDCHAR

STARTCHAR Edieresis
ENCODING 203
SWIDTH 602 0
DWIDTH 12 0
BBX 12 24 0 -5
ATTRIBUTES   E4
BITMAP
0000
0000
1980
1980
0000
3FE0
3000
3000
3000
3000
3000
3FC0
3000
3000
3000
3000
3000
3000
3FE0
0000
0000
0000
0000
0000
ENDCHAR

STARTCHAR Igrave
ENCODING 204
SWIDTH 602 0
DWIDTH 12 0
BBX 12 24 0 -5
ATTRIBUTES   E4
BITMAP
0000
0C00
0600
0300
0000
3FC0
0600
0600
0600
0600
0600
0600
0600
0600
0600
0600
0600
0600
3FC0
0000
0000
0000
0000
0000
ENDCHAR

STARTCHAR Iacute
ENCODING 205
SWIDTH 602 0
DWIDTH 12 0
BBX 12 24 0 -5
ATTRIBUTES   E4
BITMAP
0000
0300
0600
0C00
0000
3FC0
0600
0600
0600
0600
0600
0600
0600
0600
0600
0600
0600
0600
3FC0
0000
0000
0000
0000
0000
ENDCHAR

STARTCHAR Icircumflex
ENCODING 206
SWIDTH 602 0
DWIDTH 12 0
BBX 12 24 0 -5
ATTRIBUTES   E4
BITMAP
0000
0700
0D80
18C0
0000
3FC0
0600
0600
0600
0600
0600
0600
0600
0600
0600
0600
0600
0600
3FC0
0000
0000
0000
0000
0000
ENDCHAR

STARTCHAR Idieresis
ENCODING 207
SWIDTH 602 0
DWIDTH 12 0
BBX 12 24 0 -5
ATTRIBUTES   E4
BITMAP
0000
0000
1980
1980
0000
3FC0
0600
0600
0600
0600
0600
0600
0600
0600
0600
0600
0600
0600
3FC0
0000
0000
0000
0000
0000
ENDCHAR

STARTCHAR Eth
ENCODING 208
SWIDTH 602 0
DWIDTH 12 0
BBX 12 24 0 -5
ATTRIBUTES   E4
BITMAP
0000
0000
0000
0000
0000
7F00
6180
60C0
60E0
6060
6060
F860
6060
6060
6060
60C0
60C0
6180
7E00
0000
0000
0000
0000
0000
ENDCHAR

STARTCHAR Ntilde
ENCODING 209
SWIDTH 602 0
DWIDTH 12 0
BBX 12 24 0 -5
ATTRIBUTES   E4
BITMAP
0000
0000
1C80
1380
0000
3060
3860
3860
3C60
3C60
3660
3660
3360
3360
31E0
31E0
30E0
30E0
3060
0000
0000
0000
0000
0000
ENDCHAR

STARTCHAR Ograve
ENCODING 210
SWIDTH 602 0
DWIDTH 12 0
BBX 12 24 0 -5
ATTRIBUTES   E4
BITMAP
0000
0600
0300
0180
0000
0F80
18C0
3060
2020
6030
6030
6030
6030
6030
6030
2020
3060
18C0
0F80
0000
0000
0000
0000
0000
ENDCHAR

STARTCHAR Oacute
ENCODING 211
SWIDTH 602 0
DWIDTH 12 0
BBX 12 24 0 -5
ATTRIBUTES   E4
BITMAP
0000
0300
0600
0C00
0000
0F80
18C0
3060
2020
6030
6030
6030
6030
6030
6030
2020
3060
18C0
0F80
0000
0000
0000
0000
0000
ENDCHAR

STARTCHAR Ocircumflex
ENCODING 212
SWIDTH 602 0
DWIDTH 12 0
BBX 12 24 0 -5
ATTRIBUTES   E4
BITMAP
0000
0700
0D80
18C0
0000
0F80
18C0
3060
2020
6030
6030
6030
6030
6030
6030
2020
3060
18C0
0F80
0000
0000
0000
0000
0000
ENDCHAR

STARTCHAR Otilde
ENCODING 213
SWIDTH 602 0
DWIDTH 12 0
BBX 12 24 0 -5
ATTRIBUTES   E4
BITMAP
0000
0000
0E40
09C0
0000
0F80
18C0
3060
2020
6030
6030
6030
6030
6030
6030
2020
3060
18C0
0F80
0000
0000
0000
0000
0000
ENDCHAR

STARTCHAR Odieresis
ENCODING 214
SWIDTH 602 0
DWIDTH 12 0
BBX 12 24 0 -5
ATTRIBUTES   E4
BITMAP
0000
0000
0CC0
0CC0
0000
0F80
18C0
3060
2020
6030
6030
6030
6030
6030
6030
2020
3060
18C0
0F80
0000
0000
0000
0000
0000
ENDCHAR

STARTCHAR multiply
ENCODING 215
SWIDTH 602 0
DWIDTH 12 0
BBX 12 24 0 -5
ATTRIBUTES   E4
BITMAP
0000
0000
0000
0000
0000
0000
0000
0000
6020
2060
10C0
0980
0700
0600
0700
0980
10C0
6060
4020
0000
0000
0000
0000
0000
ENDCHAR

STARTCHAR Oslash
ENCODING 216
SWIDTH 602 0
DWIDTH 12 0
BBX 12 24 0 -5
ATTRIBUTES   E4
BITMAP
0000
0000
0000
0000
0000
0FB0
18E0
3060
20A0
61B0
6130
6230
6230
6430
6830
2820
3060
38C0
6F80
0000
0000
0000
0000
0000
ENDCHAR

STARTCHAR Ugrave
ENCODING 217
SWIDTH 602 0
DWIDTH 12 0
BBX 12 24 0 -5
ATTRIBUTES   E4
BITMAP
0000
0600
0300
0180
0000
3060
3060
3060
3060
3060
3060
3060
3060
3060
3060
3060
3060
18C0
0F80
0000
0000
0000
0000
0000
ENDCHAR

STARTCHAR Uacute
ENCODING 218
SWIDTH 602 0
DWIDTH 12 0
BBX 12 24 0 -5
ATTRIBUTES   E4
BITMAP
0000
0300
0600
0C00
0000
3060
3060
3060
3060
3060
3060
3060
3060
3060
3060
3060
3060
18C0
0F80
0000
0000
0000
0000
0000
ENDCHAR

STARTCHAR Ucircumflex
ENCODING 219
SWIDTH 602 0
DWIDTH 12 0
BBX 12 24 0 -5
ATTRIBUTES   E4
BITMAP
0000
0700
0D80
18C0
0000
3060
3060
3060
3060
3060
3060
3060
3060
3060
3060
3060
3060
18C0
0F80
0000
0000
0000
0000
0000
ENDCHAR

STARTCHAR Udieresis
ENCODING 220
SWIDTH 602 0
DWIDTH 12 0
BBX 12 24 0 -5
ATTRIBUTES   E4
BITMAP
0000
0000
1980
1980
0000
3060
3060
3060
3060
3060
3060
3060
3060
3060
3060
3060
3060
18C0
0F80
0000
0000
0000
0000
0000
ENDCHAR

STARTCHAR Yacute
ENCODING 221
SWIDTH 602 0
DWIDTH 12 0
BBX 12 24 0 -5
ATTRIBUTES   E4
BITMAP
0000
0300
0600
0C00
0000
E030
6060
7040
30C0
1880
1980
0F00
0E00
0600
0600
0600
0600
0600
0600
0000
0000
0000
0000
0000
ENDCHAR

STARTCHAR Thorn
ENCODING 222
SWIDTH 602 0
DWIDTH 12 0
BBX 12 24 0 -5
ATTRIBUTES   E4
BITMAP
0000
0000
0000
0000
0000
3000
3000
3000
3F80
30E0
3060
3060
3060
3060
30C0
3F00
3000
3000
3000
0000
0000
0000
0000
0000
ENDCHAR

STARTCHAR germandbls
ENCODING 223
SWIDTH 602 0
DWIDTH 12 0
BBX 12 24 0 -5
ATTRIBUTES   E4
BITMAP
0000
0000
0000
0000
1F80
30C0
30C0
30C0
3080
3100
3300
3300
31C0
30E0
3070
3030
3030
3230
33E0
0000
0000
0000
0000
0000
ENDCHAR

STARTCHAR agrave
ENCODING 224
SWIDTH 602 0
DWIDTH 12 0
BBX 12 24 0 -5
ATTRIBUTES   E4
BITMAP
0000
0000
0000
0000
0C00
0600
0300
0000
3F00
2380
0180
0180
0180
1F80
3180
6180
6180
6380
3EE0
0000
0000
0000
0000
0000
ENDCHAR

STARTCHAR aacute
ENCODING 225
SWIDTH 602 0
DWIDTH 12 0
BBX 12 24 0 -5
ATTRIBUTES   E4
BITMAP
0000
0000
0000
0000
0600
0C00
1800
0000
3F00
2380
0180
0180
0180
1F80
3180
6180
6180
6380
3EE0
0000
0000
0000
0000
0000
ENDCHAR

STARTCHAR acircumflex
ENCODING 226
SWIDTH 602 0
DWIDTH 12 0
BBX 12 24 0 -5
ATTRIBUTES   E4
BITMAP
0000
0000
0000
0000
0E00
1B00
3180
0000
3F00
2380
0180
0180
0180
1F80
3180
6180
6180
6380
3EE0
0000
0000
0000
0000
0000
ENDCHAR

STARTCHAR atilde
ENCODING 227
SWIDTH 602 0
DWIDTH 12 0
BBX 12 24 0 -5
ATTRIBUTES   E4
BITMAP
0000
0000
0000
0000
0000
1C80
1380
0000
3F00
2380
0180
0180
0180
1F80
3180
6180
6180
6380
3EE0
0000
0000
0000
0000
0000
ENDCHAR

STARTCHAR adieresis
ENCODING 228
SWIDTH 602 0
DWIDTH 12 0
BBX 12 24 0 -5
ATTRIBUTES   E4
BITMAP
0000
0000
0000
0000
0000
1980
1980
0000
3F00
2380
0180
0180
0180
1F80
3180
6180
6180
6380
3EE0
0000
0000
0000
0000
0000
ENDCHAR

STARTCHAR aring
ENCODING 229
SWIDTH 602 0
DWIDTH 12 0
BBX 12 24 0 -5
ATTRIBUTES   E4
BITMAP
0000
0000
0000
0000
0000
0E00
0E00
0000
3F00
2380
0180
0180
0180
1F80
3180
6180
6180
6380
3EE0
0000
0000
0000
0000
0000
ENDCHAR

STARTCHAR ae
ENCODING 230
SWIDTH 602 0
DWIDTH 12 0
BBX 12 24 0 -5
ATTRIBUTES   E4
BITMAP
0000
0000
0000
0000
0000
0000
0000
0000
7DC0
4760
0630
0630
0630
3FF0
6600
C600
C600
FF10
7BF0
0000
0000
0000
0000
0000
ENDCHAR

STARTCHAR ccedilla
ENCODING 231
SWIDTH 602 0
DWIDTH 12 0
BBX 12 24 0 -5
ATTRIBUTES   E4
BITMAP
0000
0000
0000
0000
0000
0000
0000
0000
07E0
1C20
1800
3000
3000
3000
3000
3000
1800
1C20
07E0
0200
0600
0100
0700
0000
ENDCHAR

STARTCHAR egrave
ENCODING 232
SWIDTH 602 0
DWIDTH 12 0
BBX 12 24 0 -5
ATTRIBUTES   E4
BITMAP
0000
0000
0000
0000
0600
0300
0180
0000
0780
18C0
1060
3060
3060
3FE0
3000
3000
1800
1C20
07E0
0000
0000
0000
0000
0000
ENDCHAR

STARTCHAR eacute
ENCODING 233
SWIDTH 602 0
DWIDTH 12 0
BBX 12 24 0 -5
ATTRIBUTES   E4
BITMAP
0000
0000
0000
0000
0300
0600
0C00
0000
0780
18C0
1060
3060
3060
3FE0
3000
3000
1800
1C20
07E0
0000
0000
0000
0000
0000
ENDCHAR

STARTCHAR ecircumflex
ENCODING 234
SWIDTH 602 0
DWIDTH 12 0
BBX 12 24 0 -5
ATTRIBUTES   E4
BITMAP
0000
0000
0000
0000
0700
0D80
18C0
0000
0780
18C0
1060
3060
3060
3FE0
3000
3000
1800
1C20
07E0
0000
0000
0000
0000
0000
ENDCHAR

STARTCHAR edieresis
ENCODING 235
SWIDTH 602 0
DWIDTH 12 0
BBX 12 24 0 -5
ATTRIBUTES   E4
BITMAP
0000
0000
0000
0000
0000
1980
1980
0000
0780
18C0
1060
3060
3060
3FE0
3000
3000
1800
1C20
07E0
0000
0000
0000
0000
0000
ENDCHAR

STARTCHAR igrave
ENCODING 236
SWIDTH 602 0
DWIDTH 12 0
BBX 12 24 0 -5
ATTRIBUTES   E4
BITMAP
0000
0000
0000
0000
0600
0300
0180
0000
3F00
0300
0300
0300
0300
0300
0300
0300
0300
0300
0300
0000
0000
0000
0000
0000
ENDCHAR

STARTCHAR iacute
ENCODING 237
SWIDTH 602 0
DWIDTH 12 0
BBX 12 24 0 -5
ATTRIBUTES   E4
BITMAP
0000
0000
0000
0000
0300
0600
0C00
0000
3F00
0300
0300
0300
0300
0300
0300
0300
0300
0300
0300
0000
0000
0000
0000
0000
ENDCHAR

STARTCHAR icircumflex
ENCODING 238
SWIDTH 602 0
DWIDTH 12 0
BBX 12 24 0 -5
ATTRIBUTES   E4
BITMAP
0000
0000
0000
0000
0700
0D80
18C0
0000
3F00
0300
0300
0300
0300
0300
0300
0300
0300
0300
0300
0000
0000
0000
0000
0000
ENDCHAR

STARTCHAR idieresis
ENCODING 239
SWIDTH 602 0
DWIDTH 12 0
BBX 12 24 0 -5
ATTRIBUTES   E4
BITMAP
0000
0000
0000
0000
0000
1980
1980
0000
3F00
0300
0300
0300
0300
0300
0300
0300
0300
0300
0300
0000
0000
0000
0000
0000
ENDCHAR

STARTCHAR eth
ENCODING 240
SWIDTH 602 0
DWIDTH 12 0
BBX 12 24 0 -5
ATTRIBUTES   E4
BITMAP
0000
0000
0000
0000
7300
0F00
3300
0180
0FC0
30C0
30C0
6060
6060
6060
6060
6060
30C0
30C0
0F00
0000
0000
0000
0000
0000
ENDCHAR

STARTCHAR ntilde
ENCODING 241
SWIDTH 602 0
DWIDTH 12 0
BBX 12 24 0 -5
ATTRIBUTES   E4
BITMAP
0000
0000
0000
0000
0000
1C80
1380
0000
33C0
37E0
3C60
3060
3060
3060
3060
3060
3060
3060
3060
0000
0000
0000
0000
0000
ENDCHAR

STARTCHAR ograve
ENCODING 242
SWIDTH 602 0
DWIDTH 12 0
BBX 12 24 0 -5
ATTRIBUTES   E4
BITMAP
0000
0000
0000
0000
0C00
0600
0300
0000
0F00
30C0
30C0
6060
6060
6060
6060
6060
30C0
30C0
0F00
0000
0000
0000
0000
0000
ENDCHAR

STARTCHAR oacute
ENCODING 243
SWIDTH 602 0
DWIDTH 12 0
BBX 12 24 0 -5
ATTRIBUTES   E4
BITMAP
0000
0000
0000
0000
0300
0600
0C00
0000
0F00
30C0
30C0
6060
6060
6060
6060
6060
30C0
30C0
0F00
0000
0000
0000
0000
0000
ENDCHAR

STARTCHAR ocircumflex
ENCODING 244
SWIDTH 602 0
DWIDTH 12 0
BBX 12 24 0 -5
ATTRIBUTES   E4
BITMAP
0000
0000
0000
0000
0700
0D80
18C0
0000
0F00
30C0
30C0
6060
6060
6060
6060
6060
30C0
30C0
0F00
0000
0000
0000
0000
0000
ENDCHAR

STARTCHAR otilde
ENCODING 245
SWIDTH 602 0
DWIDTH 12 0
BBX 12 24 0 -5
ATTRIBUTES   E4
BITMAP
0000
0000
0000
0000
0000
1C80
1380
0000
0F00
30C0
30C0
6060
6060
6060
6060
6060
30C0
30C0
0F00
0000
0000
0000
0000
0000
ENDCHAR

STARTCHAR odieresis
ENCODING 246
SWIDTH 602 0
DWIDTH 12 0
BBX 12 24 0 -5
ATTRIBUTES   E4
BITMAP
0000
0000
0000
0000
0000
1980
1980
0000
0F00
30C0
30C0
6060
6060
6060
6060
6060
30C0
30C0
0F00
0000
0000
0000
0000
0000
ENDCHAR

STARTCHAR divide
ENCODING 247
SWIDTH 602 0
DWIDTH 12 0
BBX 12 24 0 -5
ATTRIBUTES   E4
BITMAP
0000
0000
0000
0000
0000
0000
0000
0000
0600
0600
0000
0000
0000
7FE0
0000
0000
0000
0600
0600
0000
0000
0000
0000
0000
ENDCHAR

STARTCHAR oslash
ENCODING 248
SWIDTH 602 0
DWIDTH 12 0
BBX 12 24 0 -5
ATTRIBUTES   E4
BITMAP
0000
0000
0000
0000
0000
0000
0000
0000
0F60
30C0
30C0
6160
6260
6660
6460
6860
30C0
30C0
6F00
0000
0000
0000
0000
0000
ENDCHAR

STARTCHAR ugrave
ENCODING 249
SWIDTH 602 0
DWIDTH 12 0
BBX 12 24 0 -5
ATTRIBUTES   E4
BITMAP
0000
0000
0000
0000
0C00
0600
0300
0000
60C0
60C0
60C0
60C0
60C0
60C0
60C0
60C0
63C0
7EC0
3CC0
0000
0000
0000
0000
0000
ENDCHAR

STARTCHAR uacute
ENCODING 250
SWIDTH 602 0
DWIDTH 12 0
BBX 12 24 0 -5
ATTRIBUTES   E4
BITMAP
0000
0000
0000
0000
0600
0C00
1800
0000
60C0
60C0
60C0
60C0
60C0
60C0
60C0
60C0
63C0
7EC0
3CC0
0000
0000
0000
0000
0000
ENDCHAR

STARTCHAR ucircumflex
ENCODING 251
SWIDTH 602 0
DWIDTH 12 0
BBX 12 24 0 -5
ATTRIBUTES   E4
BITMAP
0000
0000
0000
0000
0E00
1B00
3180
0000
60C0
60C0
60C0
60C0
60C0
60C0
60C0
60C0
63C0
7EC0
3CC0
0000
0000
0000
0000
0000
ENDCHAR

STARTCHAR udieresis
ENCODING 252
SWIDTH 602 0
DWIDTH 12 0
BBX 12 24 0 -5
ATTRIBUTES   E4
BITMAP
0000
0000
0000
0000
0000
1980
1980
0000
60C0
60C0
60C0
60C0
60C0
60C0
60C0
60C0
63C0
7EC0
3CC0
0000
0000
0000
0000
0000
ENDCHAR

STARTCHAR yacute
ENCODING 253
SWIDTH 602 0
DWIDTH 12 0
BBX 12 24 0 -5
ATTRIBUTES   E4
BITMAP
0000
0000
0000
0000
0300
0600
0C00
0000
6030
7060
3060
3040
18C0
1880
0D80
0D00
0D00
0700
0600
0600
0400
0C00
3800
0000
ENDCHAR

STARTCHAR thorn
ENCODING 254
SWIDTH 602 0
DWIDTH 12 0
BBX 12 24 0 -5
ATTRIBUTES   E4
BITMAP
0000
0000
0000
0000
0000
3000
3000
3000
3380
3FC0
38E0
3060
3060
3060
3060
3060
3040
38C0
3780
3000
3000
3000
3000
0000
ENDCHAR

STARTCHAR ydieresis
ENCODING 255
SWIDTH 602 0
DWIDTH 12 0
BBX 12 24 0 -5
ATTRIBUTES   E4
BITMAP
0000
0000
0000
0000
0000
1980
1980
0000
6030
7060
3060
3040
18C0
1880
0D80
0D00
0D00
0700
0600
0600
0400
0C00
3800
0000
ENDCHAR
ENDFONT
